<svg xmlns="http://www.w3.org/2000/svg" viewBox="0 0 517.56 113.64"><defs><style>.cls-1{fill:#9f0;}</style></defs><g id="Capa_2" data-name="Capa 2"><g id="Capa_1-2" data-name="Capa 1"><polygon class="cls-1" points="35.74 17.55 31.52 19.98 14.76 29.66 0 113.39 18.85 113.39 31.52 41.5 35.74 17.55"/><polygon class="cls-1" points="66.14 0 60.39 3.32 45.15 12.11 31.52 89.43 27.3 113.39 31.52 113.39 46.14 113.39 60.39 32.57 66.14 0"/><path class="cls-1" d="M95.73,62.86A24.54,24.54,0,0,0,78.55,20.78H71l-1.64,9.28h4.78a13,13,0,0,1,0,25.9H64.78L62.32,69.88H78.55A12.55,12.55,0,0,1,91.38,82.35,12.39,12.39,0,0,1,78.9,94.83h-21l-3.27,18.56H85a26.4,26.4,0,0,0,10.7-50.53Z"/><path class="cls-1" d="M475.74,51.11a18.21,18.21,0,0,0-6.19-4.31,19.82,19.82,0,0,0-7.88-1.54h-.46a21.33,21.33,0,0,0-7.88,1.57,19.19,19.19,0,0,0-6.57,4.46,20.36,20.36,0,0,0-4.3,6.8,23.26,23.26,0,0,0-1.54,8.61,21,21,0,0,0,2.76,10.8A19.86,19.86,0,0,0,451.45,85a23.34,23.34,0,0,0,9.76,2.67c.65,0,1.32.06,2,.06a24.21,24.21,0,0,0,5.57-.66,25.29,25.29,0,0,0,5.5-2,23.28,23.28,0,0,0,5.08-3.38l-5.77-8.15a17.81,17.81,0,0,1-4.42,2.62,13.18,13.18,0,0,1-4.65.77,17.23,17.23,0,0,1-3.31-.31A12.36,12.36,0,0,1,458,75.55a9.69,9.69,0,0,1-4.15-3.88,10.39,10.39,0,0,1-1-2.5h28l.08-3.31a21.57,21.57,0,0,0-1.23-8.22A18.82,18.82,0,0,0,475.74,51.11Zm-6.15,11.14H452.82a11.12,11.12,0,0,1,.7-2,7.63,7.63,0,0,1,3.19-3.45,9.76,9.76,0,0,1,4.5-1.18l.62,0a8.54,8.54,0,0,1,3.84.85,7.06,7.06,0,0,1,2.73,2.34,6.85,6.85,0,0,1,1.19,3.42Z"/><path class="cls-1" d="M186.73,59.56a14.88,14.88,0,0,0-3.84-2h0a10.42,10.42,0,0,0,4.3-3.46,13,13,0,0,0,2.27-7.76,12.54,12.54,0,0,0-2-7.11,12.3,12.3,0,0,0-5.8-4.54,24.8,24.8,0,0,0-9.38-1.57H148.56V86.93h24.53a27.92,27.92,0,0,0,7.72-1,17.34,17.34,0,0,0,6.11-3.08,13.51,13.51,0,0,0,4-5.11,17,17,0,0,0,1.38-7.11,13.19,13.19,0,0,0-5.57-11.07ZM160.86,44H170a7.74,7.74,0,0,1,5.07,1.42,4.82,4.82,0,0,1,1.7,3.89,5.47,5.47,0,0,1-.73,2.88,4.79,4.79,0,0,1-2.16,1.84,8.09,8.09,0,0,1-3.42.66h-9.61Zm17.76,29.25a5.29,5.29,0,0,1-2.34,2,8.72,8.72,0,0,1-3.66.69H160.86V64.48h11.38a10.08,10.08,0,0,1,3.84.66,5.49,5.49,0,0,1,2.5,1.88,5,5,0,0,1,.89,3A6,6,0,0,1,178.62,73.28Z"/><path class="cls-1" d="M515.37,45.49a13.8,13.8,0,0,0-2.57-.23,12.65,12.65,0,0,0-6.08,1.54,16.37,16.37,0,0,0-5,4.15,17.11,17.11,0,0,0-1,1.4l-.25-6.24H488.81V86.93h12.38V66.48a9.08,9.08,0,0,1,.57-3.31,8.08,8.08,0,0,1,1.58-2.53A6.73,6.73,0,0,1,505.8,59a8.56,8.56,0,0,1,3.15-.57,12.49,12.49,0,0,1,3,.34,7.5,7.5,0,0,1,2.27.89L517.56,46Q516.57,45.73,515.37,45.49Z"/><path class="cls-1" d="M370,51.06l0,0h0v0a15.66,15.66,0,0,0-2.54-2.61,14,14,0,0,0-4.26-2.34,15.11,15.11,0,0,0-2.27-.59,17.94,17.94,0,0,0-3.08-.26A16.8,16.8,0,0,0,348.44,48a18.84,18.84,0,0,0-6.54,7.5,24.22,24.22,0,0,0-2.38,11,24.16,24.16,0,0,0,2.38,10.88,19.15,19.15,0,0,0,6.42,7.53,16,16,0,0,0,9.19,2.73,16.38,16.38,0,0,0,3.46-.36,13.65,13.65,0,0,0,1.77-.49,16.6,16.6,0,0,0,4.45-2.3,15.09,15.09,0,0,0,2.62-2.41v4.87h12.45V46.11H370Zm-1,21.15a8.81,8.81,0,0,1-3.23,3.73,9,9,0,0,1-4.84,1.3h-.08a8.69,8.69,0,0,1-4.8-1.3,8.8,8.8,0,0,1-3.19-3.73,14.73,14.73,0,0,1,0-11.46A9,9,0,0,1,356.09,57a8.47,8.47,0,0,1,4.8-1.35H361A8.74,8.74,0,0,1,365.81,57,9,9,0,0,1,369,60.75a14.85,14.85,0,0,1,0,11.46Z"/><path class="cls-1" d="M283.86,47.15a14.85,14.85,0,0,0-7.76-1.89,15.45,15.45,0,0,0-6.46,1.39,16.83,16.83,0,0,0-5.27,3.65c-.25.26-.5.54-.73.81l-.23-5H251.73V86.93H264V62.48a6.33,6.33,0,0,1,.57-2.69,7.38,7.38,0,0,1,1.58-2.19,6.65,6.65,0,0,1,2.38-1.46,8.91,8.91,0,0,1,3-.5,6.48,6.48,0,0,1,3.5.73,4.92,4.92,0,0,1,2.11,2.42,10.27,10.27,0,0,1,.7,4.08V86.93h12.37V61.87a23,23,0,0,0-1.61-9.11A11.72,11.72,0,0,0,283.86,47.15Z"/><path class="cls-1" d="M426.85,48.07a16.34,16.34,0,0,0-9.3-2.73,18.64,18.64,0,0,0-3.19.27,17.42,17.42,0,0,0-3.54,1A15.36,15.36,0,0,0,405.55,50c-.19.19-.37.39-.54.59l-.22-4.43H393.1v57.73h12.38V82.78a15.53,15.53,0,0,0,5.3,3.53,17.29,17.29,0,0,0,3.58,1,17.87,17.87,0,0,0,3,.26,16.63,16.63,0,0,0,9.42-2.73,18.77,18.77,0,0,0,6.46-7.49,24.48,24.48,0,0,0,2.34-10.92,24.37,24.37,0,0,0-2.34-11A18.82,18.82,0,0,0,426.85,48.07Zm-4.38,24.1a9.06,9.06,0,0,1-3.23,3.73,8.77,8.77,0,0,1-4.84,1.34h0a8.83,8.83,0,0,1-4.89-1.34,9,9,0,0,1-3.22-3.73,13,13,0,0,1-1.16-5.69,13.26,13.26,0,0,1,1.16-5.69A8.67,8.67,0,0,1,409.47,57a9.06,9.06,0,0,1,4.89-1.3h0a8.72,8.72,0,0,1,4.88,1.34,9.18,9.18,0,0,1,3.19,3.77,14.55,14.55,0,0,1,0,11.34Z"/><path class="cls-1" d="M314.46,57.29A9.81,9.81,0,0,1,319.61,56a11.16,11.16,0,0,1,3.69.61,12.42,12.42,0,0,1,3.23,1.69,15.74,15.74,0,0,1,2.53,2.31l6.69-8a17.63,17.63,0,0,0-7.26-5.39,25.69,25.69,0,0,0-10-1.92A20.5,20.5,0,0,0,307.85,48a20.2,20.2,0,0,0-7.42,7.57,21.65,21.65,0,0,0-2.73,10.88,21.65,21.65,0,0,0,2.73,10.88,20.27,20.27,0,0,0,7.42,7.57,20.5,20.5,0,0,0,10.61,2.77,25.82,25.82,0,0,0,10-1.92,17.76,17.76,0,0,0,7.27-5.23l-6.62-8.07a14.19,14.19,0,0,1-2.65,2.46,10.91,10.91,0,0,1-3.11,1.5,13.12,13.12,0,0,1-3.69.5,9.41,9.41,0,0,1-5.07-1.39,9.64,9.64,0,0,1-3.5-3.77,11,11,0,0,1-1.27-5.3A11.74,11.74,0,0,1,311,61,9.16,9.16,0,0,1,314.46,57.29Z"/><path class="cls-1" d="M228.67,51.05h0a16,16,0,0,0-2.54-2.6,13.89,13.89,0,0,0-4.27-2.34,14.8,14.8,0,0,0-2.27-.59,17.73,17.73,0,0,0-3.07-.26A16.83,16.83,0,0,0,207.06,48a18.89,18.89,0,0,0-6.53,7.5,24.22,24.22,0,0,0-2.38,11,24.16,24.16,0,0,0,2.38,10.88A19.15,19.15,0,0,0,207,84.89a16,16,0,0,0,9.18,2.73,16.31,16.31,0,0,0,3.46-.36,12.83,12.83,0,0,0,1.77-.49,16.66,16.66,0,0,0,4.46-2.3,15.46,15.46,0,0,0,2.62-2.41v4.87h12.45V46.11H228.67Zm-1,21.16a8.81,8.81,0,0,1-3.23,3.73,9,9,0,0,1-4.85,1.3h-.07a8.72,8.72,0,0,1-4.81-1.3,8.94,8.94,0,0,1-3.19-3.73,14.85,14.85,0,0,1,0-11.46A9.09,9.09,0,0,1,214.71,57a8.51,8.51,0,0,1,4.81-1.35h.07A8.78,8.78,0,0,1,224.44,57a9,9,0,0,1,3.23,3.76,14.85,14.85,0,0,1,0,11.46Z"/><path class="cls-1" d="M371.44,101.77h0a5.05,5.05,0,0,0-.9-1,4.76,4.76,0,0,0-1.44-.79,4.82,4.82,0,0,0-1-.24,7.62,7.62,0,0,0-.85-.05,5.56,5.56,0,0,0-3.1.88,6.31,6.31,0,0,0-2.17,2.45,7.84,7.84,0,0,0-.79,3.59,7.93,7.93,0,0,0,.78,3.59,6.3,6.3,0,0,0,2.13,2.48,5.25,5.25,0,0,0,3,.91,5.39,5.39,0,0,0,1-.09,6.2,6.2,0,0,0,.77-.2,5.86,5.86,0,0,0,1.51-.79,5,5,0,0,0,1-.92v1.75H375V100h-3.56Zm-.37,6.93a3.16,3.16,0,0,1-1.17,1.35,3.2,3.2,0,0,1-1.76.48h0a3.1,3.1,0,0,1-1.73-.48,3.31,3.31,0,0,1-1.18-1.35,4.64,4.64,0,0,1-.43-2,4.53,4.53,0,0,1,.43-2,3.45,3.45,0,0,1,1.18-1.35,3,3,0,0,1,1.73-.49h0a3.21,3.21,0,0,1,1.76.49,3.28,3.28,0,0,1,1.17,1.35,4.53,4.53,0,0,1,.42,2A4.64,4.64,0,0,1,371.07,108.7Z"/><path class="cls-1" d="M199.18,104.39a5.39,5.39,0,0,0-1.28-.68,3.52,3.52,0,0,0,1.42-1.12,4.11,4.11,0,0,0,.76-2.53,4.2,4.2,0,0,0-.64-2.35,4,4,0,0,0-1.85-1.5,7.64,7.64,0,0,0-3-.52h-7.68v17.7h7.93a8.57,8.57,0,0,0,2.52-.35,5.93,5.93,0,0,0,2-1,4.25,4.25,0,0,0,1.26-1.66,5.77,5.77,0,0,0,.43-2.31,4.64,4.64,0,0,0-.48-2.13A4.39,4.39,0,0,0,199.18,104.39ZM190.55,99h3.36a2.87,2.87,0,0,1,1.84.5,1.76,1.76,0,0,1,.61,1.44,1.89,1.89,0,0,1-.27,1,1.84,1.84,0,0,1-.77.68,2.57,2.57,0,0,1-1.18.25h-3.59Zm6.39,10.13a1.78,1.78,0,0,1-.87.75,3.55,3.55,0,0,1-1.38.24h-4.14v-4.22h4a3.77,3.77,0,0,1,1.42.24,2.07,2.07,0,0,1,.93.69,1.88,1.88,0,0,1,.33,1.12A2.25,2.25,0,0,1,196.94,109.11Z"/><rect class="cls-1" x="378.74" y="94.68" width="3.59" height="18.7"/><path class="cls-1" d="M213.34,101.77h0a5,5,0,0,0-.89-1A4.94,4.94,0,0,0,211,100a4.82,4.82,0,0,0-1-.24,7.58,7.58,0,0,0-.84-.05,5.57,5.57,0,0,0-3.11.88,6.21,6.21,0,0,0-2.16,2.45,7.84,7.84,0,0,0-.8,3.59,7.93,7.93,0,0,0,.78,3.59,6.38,6.38,0,0,0,2.13,2.48,5.26,5.26,0,0,0,3,.91,5.36,5.36,0,0,0,1-.09,6.2,6.2,0,0,0,.77-.2,5.86,5.86,0,0,0,1.51-.79,5,5,0,0,0,1-.92v1.75h3.62V100h-3.57ZM213,108.7a3.13,3.13,0,0,1-2.94,1.83h0a3.12,3.12,0,0,1-1.73-.48,3.31,3.31,0,0,1-1.18-1.35,4.64,4.64,0,0,1-.43-2,4.53,4.53,0,0,1,.43-2,3.45,3.45,0,0,1,1.18-1.35,3,3,0,0,1,1.73-.49h0a3.21,3.21,0,0,1,1.76.49,3.3,3.3,0,0,1,1.18,1.35,4.67,4.67,0,0,1,.41,2A4.79,4.79,0,0,1,213,108.7Z"/><path class="cls-1" d="M157.33,104.33,152,95.69h-3.46v17.7h3.72v-6.07q0-2.46-.12-4.23c0-.37,0-.73-.08-1.08l4.34,6.83h1.67l4.4-6.83h0c0,.4-.07.81-.09,1.21-.08,1.22-.12,2.58-.12,4.1v6.07H166V95.69h-3.31Z"/><path class="cls-1" d="M314,99.74a4.16,4.16,0,0,0-1.94.48,5.05,5.05,0,0,0-1.6,1.32,6.62,6.62,0,0,0-.44.64l-.07-2.17h-3.46v13.38h3.62v-6.93a3.11,3.11,0,0,1,.21-1.16,2.89,2.89,0,0,1,.59-.93,2.73,2.73,0,0,1,.9-.6,2.81,2.81,0,0,1,1.13-.22,3.35,3.35,0,0,1,.89.12,2.82,2.82,0,0,1,.72.26l1-3.94a3.87,3.87,0,0,0-.68-.18A4.57,4.57,0,0,0,314,99.74Z"/><path class="cls-1" d="M172.32,93.37a2.31,2.31,0,0,0-1.61.54,1.83,1.83,0,0,0-.59,1.4,1.85,1.85,0,0,0,.58,1.46,2.38,2.38,0,0,0,1.62.51,2.24,2.24,0,0,0,1.6-.55,2,2,0,0,0,0-2.85A2.38,2.38,0,0,0,172.32,93.37Z"/><rect class="cls-1" x="170.55" y="100.01" width="3.59" height="13.37"/><path class="cls-1" d="M286,96.44a5.48,5.48,0,0,0-2.86-.75h-7.5v17.7h3.79v-6.2h3.71a5.31,5.31,0,0,0,2.86-.77,5.73,5.73,0,0,0,2-2.08,5.89,5.89,0,0,0,.75-3,5.68,5.68,0,0,0-.75-2.91A5.51,5.51,0,0,0,286,96.44Zm-1.43,6.18a2.31,2.31,0,0,1-.77.84,1.94,1.94,0,0,1-1.09.32h-3.33V99.1h3.33a2,2,0,0,1,1.09.31,2.22,2.22,0,0,1,.77.81,2.25,2.25,0,0,1,.29,1.18A2.45,2.45,0,0,1,284.6,102.62Z"/><path class="cls-1" d="M326.66,107a4.45,4.45,0,0,0-1.35-.93,12.1,12.1,0,0,0-2.06-.74c-.62-.17-1.12-.32-1.48-.45a8.26,8.26,0,0,1-.82-.36,1.15,1.15,0,0,1-.39-.43,1.08,1.08,0,0,1-.14-.53,1.18,1.18,0,0,1,.11-.5,1.14,1.14,0,0,1,.34-.39,1.63,1.63,0,0,1,.57-.24,3.31,3.31,0,0,1,1.86.12,5.53,5.53,0,0,1,1.18.56,6.24,6.24,0,0,1,1,.78l1.92-2.12a6.41,6.41,0,0,0-1.48-1.1,7.75,7.75,0,0,0-1.83-.72,8,8,0,0,0-2-.25,6.39,6.39,0,0,0-2,.29,5.26,5.26,0,0,0-1.66.82,3.87,3.87,0,0,0-1.12,1.27,3.43,3.43,0,0,0-.41,1.66,3.81,3.81,0,0,0,.24,1.38,4,4,0,0,0,.7,1.15,5.16,5.16,0,0,0,1.42,1,11.76,11.76,0,0,0,2.19.77c.56.15,1,.29,1.37.41a4.3,4.3,0,0,1,.78.35,1,1,0,0,1,.45.85,1.13,1.13,0,0,1-.11.52,1,1,0,0,1-.34.41,1.68,1.68,0,0,1-.54.25,2.58,2.58,0,0,1-.7.09,5.24,5.24,0,0,1-1.92-.37,4.41,4.41,0,0,1-1.72-1.2l-2.25,1.92a5.89,5.89,0,0,0,2.34,1.71,8.47,8.47,0,0,0,3.32.62,6.5,6.5,0,0,0,2.73-.56,4.68,4.68,0,0,0,1.91-1.51,3.63,3.63,0,0,0,.7-2.2,3.75,3.75,0,0,0-.21-1.29A2.72,2.72,0,0,0,326.66,107Z"/><path class="cls-1" d="M230.84,100.34a5,5,0,0,0-2.54-.6,5.14,5.14,0,0,0-2.12.45,5.36,5.36,0,0,0-1.73,1.2,3.9,3.9,0,0,0-.33.38l-.06-1.76h-3.44v13.38h3.59v-8a2.31,2.31,0,0,1,.21-1,3.08,3.08,0,0,1,.58-.81,2.65,2.65,0,0,1,.89-.54,3.14,3.14,0,0,1,1.12-.19,2.53,2.53,0,0,1,1.28.25,1.74,1.74,0,0,1,.77.89,3.91,3.91,0,0,1,.25,1.51v7.92h3.59V105.2a7.64,7.64,0,0,0-.52-3A3.71,3.71,0,0,0,230.84,100.34Z"/><path class="cls-1" d="M340,100.63a7.39,7.39,0,0,0-3.63-.89h0a7.33,7.33,0,0,0-3.62.89,6.67,6.67,0,0,0-2.53,2.47,7.46,7.46,0,0,0,0,7.18,6.72,6.72,0,0,0,2.53,2.46,7.33,7.33,0,0,0,3.62.9h0a7.29,7.29,0,0,0,3.63-.9,6.52,6.52,0,0,0,2.51-2.46,7.54,7.54,0,0,0,0-7.18A6.48,6.48,0,0,0,340,100.63Zm-.63,8a3.45,3.45,0,0,1-1.23,1.36,3.23,3.23,0,0,1-1.77.49h0a3.17,3.17,0,0,1-1.76-.49,3.4,3.4,0,0,1-1.24-1.36,3.9,3.9,0,0,1-.43-2,3.84,3.84,0,0,1,.43-2,3.49,3.49,0,0,1,1.24-1.37,3.18,3.18,0,0,1,1.76-.5h0a3.23,3.23,0,0,1,1.77.49,3.45,3.45,0,0,1,1.23,1.36,4.15,4.15,0,0,1,.41,2A4.11,4.11,0,0,1,339.39,108.65Z"/><path class="cls-1" d="M302,101.62a6,6,0,0,0-2-1.4,6.25,6.25,0,0,0-2.53-.51h-.21a7.16,7.16,0,0,0-2.51.52,6.3,6.3,0,0,0-2.16,1.46,6.82,6.82,0,0,0-1.41,2.24,7.7,7.7,0,0,0-.51,2.86,6.9,6.9,0,0,0,.9,3.54,6.41,6.41,0,0,0,2.53,2.42,7.59,7.59,0,0,0,3.16.87l.64,0a7.94,7.94,0,0,0,1.85-.23,8.32,8.32,0,0,0,1.82-.67,7.06,7.06,0,0,0,1.61-1.1l-1.72-2.4a5.64,5.64,0,0,1-1.56,1,4.45,4.45,0,0,1-1.62.28,5.53,5.53,0,0,1-1-.09A4.27,4.27,0,0,1,296,110a3.57,3.57,0,0,1-1.88-2.49h9.53l0-1.12a6.77,6.77,0,0,0-.4-2.64A6.28,6.28,0,0,0,302,101.62Zm-1.68,3.68h-6.15a3.86,3.86,0,0,1,.28-.81,2.8,2.8,0,0,1,1.18-1.27,3.66,3.66,0,0,1,1.62-.42h.26a2.94,2.94,0,0,1,1.37.32,2.83,2.83,0,0,1,1,.86,2.33,2.33,0,0,1,.45,1.23Z"/><path class="cls-1" d="M240.77,103.36a3.39,3.39,0,0,1,1.83-.49,3.71,3.71,0,0,1,1.28.23,4.56,4.56,0,0,1,1.15.62,4.33,4.33,0,0,1,.89.87l2-2.38a5.58,5.58,0,0,0-2.33-1.82,8.17,8.17,0,0,0-3.28-.65,6.52,6.52,0,0,0-5.83,3.38,7.74,7.74,0,0,0,0,7.13,6.5,6.5,0,0,0,5.83,3.39,7.91,7.91,0,0,0,3.22-.67,5.8,5.8,0,0,0,2.36-1.76l-1.94-2.37a5.81,5.81,0,0,1-.95.91,3.78,3.78,0,0,1-1.1.55,4.18,4.18,0,0,1-1.24.18,3.35,3.35,0,0,1-1.82-.51,3.64,3.64,0,0,1-1.28-1.36,4,4,0,0,1-.46-1.92,4.18,4.18,0,0,1,.45-2A3.42,3.42,0,0,1,240.77,103.36Z"/><path class="cls-1" d="M259.59,101.77h0a5.39,5.39,0,0,0-.9-1,4.76,4.76,0,0,0-1.44-.79,5.19,5.19,0,0,0-1-.24,7.77,7.77,0,0,0-.85-.05,5.59,5.59,0,0,0-3.11.88,6.21,6.21,0,0,0-2.16,2.45,7.84,7.84,0,0,0-.8,3.59,7.94,7.94,0,0,0,.79,3.59,6.36,6.36,0,0,0,2.12,2.48,5.29,5.29,0,0,0,3,.91,5.55,5.55,0,0,0,1-.09,6.69,6.69,0,0,0,.77-.2,5.79,5.79,0,0,0,1.5-.79,5.06,5.06,0,0,0,1-.92v1.75h3.61V100h-3.56Zm-.37,6.93a3.13,3.13,0,0,1-2.93,1.83h0a3.15,3.15,0,0,1-1.73-.48,3.29,3.29,0,0,1-1.17-1.35,4.51,4.51,0,0,1-.43-2,4.39,4.39,0,0,1,.43-2,3.43,3.43,0,0,1,1.17-1.35,3.07,3.07,0,0,1,1.73-.49h0a3.17,3.17,0,0,1,1.75.49,3.3,3.3,0,0,1,1.18,1.35,4.53,4.53,0,0,1,.42,2A4.64,4.64,0,0,1,259.22,108.7Z"/><path class="cls-1" d="M356.52,100.34a5,5,0,0,0-2.54-.6,5.14,5.14,0,0,0-2.12.45,5.4,5.4,0,0,0-1.74,1.2c-.11.12-.22.25-.32.38l-.07-1.76h-3.44v13.38h3.59v-8a2.32,2.32,0,0,1,.22-1,2.87,2.87,0,0,1,.58-.81,2.61,2.61,0,0,1,.88-.54,3.23,3.23,0,0,1,1.13-.19,2.53,2.53,0,0,1,1.28.25,1.74,1.74,0,0,1,.77.89,3.91,3.91,0,0,1,.25,1.51v7.92h3.59V105.2a7.64,7.64,0,0,0-.52-3A3.81,3.81,0,0,0,356.52,100.34Z"/></g></g></svg>